{
  "accessors": [
    {
      "bufferView": 2,
      "componentType": 5126,
      "count": 38363,
      "max": [
        0.43301987648010254,
        0.8728112578392029,
        0.5595410466194153
      ],
      "min": [
        -0.4153383672237396,
        0.46041208505630493,
        -0.4530685842037201
      ],
      "type": "VEC3"
    },
    {
      "bufferView": 2,
      "byteOffset": 460356,
      "componentType": 5126,
      "count": 38363,
      "max": [
        0.9999977946281433,
        0.9999992251396179,
        0.9999871850013733
      ],
      "min": [
        -0.9999850392341614,
        -0.9999994039535522,
        -0.9999961256980896
      ],
      "type": "VEC3"
    },
    {
      "bufferView": 3,
      "componentType": 5126,
      "count": 38363,
      "max": [
        0.9999966025352478,
        0.99997878074646,
        0.9999788403511047,
        -1.0
      ],
      "min": [
        -0.9999861121177673,
        -0.999985933303833,
        -0.9999969005584717,
        -1.0
      ],
      "type": "VEC4"
    },
    {
      "bufferView": 1,
      "componentType": 5126,
      "count": 38363,
      "max": [
        0.9998940229415894,
        0.9999454617500305
      ],
      "min": [
        3.05758549075108e-05,
        0.0006140470504760742
      ],
      "type": "VEC2"
    },
    {
      "bufferView": 1,
      "byteOffset": 306904,
      "componentType": 5126,
      "count": 38363,
      "max": [
        0.9998940229415894,
        0.9999454617500305
      ],
      "min": [
        3.05758549075108e-05,
        0.0006140470504760742
      ],
      "type": "VEC2"
    },
    {
      "bufferView": 1,
      "byteOffset": 613808,
      "componentType": 5126,
      "count": 38363,
      "max": [
        0.9998940229415894,
        0.9999454617500305
      ],
      "min": [
        3.05758549075108e-05,
        0.0006140470504760742
      ],
      "type": "VEC2"
    },
    {
      "bufferView": 0,
      "componentType": 5125,
      "count": 190551,
      "type": "SCALAR"
    }
  ],
  "asset": {
    "extras": {
      "author": "Jordan F (https://sketchfab.com/JordanF)",
      "license": "CC-BY-4.0 (http://creativecommons.org/licenses/by/4.0/)",
      "source": "https://sketchfab.com/3d-models/nortel-vista-200-corded-landline-telephone-aa47a7474cdd4e1cbf21b2ceceeabf47",
      "title": "Nortel Vista 200 Corded Landline Telephone"
    },
    "generator": "Sketchfab-16.12.0",
    "version": "2.0"
  },
  "bufferViews": [
    {
      "buffer": 0,
      "byteLength": 762204,
      "name": "floatBufferViews",
      "target": 34963
    },
    {
      "buffer": 0,
      "byteLength": 920712,
      "byteOffset": 762204,
      "byteStride": 8,
      "name": "floatBufferViews",
      "target": 34962
    },
    {
      "buffer": 0,
      "byteLength": 920712,
      "byteOffset": 1682916,
      "byteStride": 12,
      "name": "floatBufferViews",
      "target": 34962
    },
    {
      "buffer": 0,
      "byteLength": 613808,
      "byteOffset": 2603628,
      "byteStride": 16,
      "name": "floatBufferViews",
      "target": 34962
    }
  ],
  "buffers": [
    {
      "byteLength": 3217436,
      "uri": "scene.bin"
    }
  ],
  "images": [
    {
      "uri": "textures/material_0_baseColor.jpeg"
    },
    {
      "uri": "textures/material_0_metallicRoughness.png"
    },
    {
      "uri": "textures/material_0_normal.jpeg"
    }
  ],
  "materials": [
    {
      "doubleSided": true,
      "name": "material_0",
      "normalTexture": {
        "index": 2
      },
      "occlusionTexture": {
        "index": 1
      },
      "pbrMetallicRoughness": {
        "baseColorTexture": {
          "index": 0
        },
        "metallicFactor": 0.0,
        "metallicRoughnessTexture": {
          "index": 1
        },
        "roughnessFactor": 0.5172906211567493
      }
    }
  ],
  "meshes": [
    {
      "name": "Object_0",
      "primitives": [
        {
          "attributes": {
            "NORMAL": 1,
            "POSITION": 0,
            "TANGENT": 2,
            "TEXCOORD_0": 3,
            "TEXCOORD_1": 4,
            "TEXCOORD_2": 5
          },
          "indices": 6,
          "material": 0,
          "mode": 4
        }
      ]
    }
  ],
  "nodes": [
    {
      "children": [
        1
      ],
      "matrix": [
        1.0,
        0.0,
        0.0,
        0.0,
        0.0,
        2.220446049250313e-16,
        -1.0,
        0.0,
        0.0,
        1.0,
        2.220446049250313e-16,
        0.0,
        0.0,
        0.0,
        0.0,
        1.0
      ],
      "name": "Sketchfab_model"
    },
    {
      "children": [
        2
      ],
      "name": "root"
    },
    {
      "children": [
        3
      ],
      "matrix": [
        1.0,
        0.0,
        0.0,
        0.0,
        0.0,
        2.220446049250313e-16,
        1.0,
        0.0,
        0.0,
        -1.0,
        2.220446049250313e-16,
        0.0,
        0.0,
        0.0,
        0.0,
        1.0
      ],
      "name": "GLTF_SceneRootNode"
    },
    {
      "children": [
        4
      ],
      "name": "_0"
    },
    {
      "mesh": 0,
      "name": "Object_4"
    }
  ],
  "samplers": [
    {
      "magFilter": 9729,
      "minFilter": 9987,
      "wrapS": 10497,
      "wrapT": 10497
    }
  ],
  "scene": 0,
  "scenes": [
    {
      "name": "Sketchfab_Scene",
      "nodes": [
        0
      ]
    }
  ],
  "textures": [
    {
      "sampler": 0,
      "source": 0
    },
    {
      "sampler": 0,
      "source": 1
    },
    {
      "sampler": 0,
      "source": 2
    }
  ]
}
